<mxfile host="65bd71144e">
    <diagram name="Pagina-1" id="E2o_8rTeiAPZlN4SxjFJ">
        <mxGraphModel dx="1539" dy="1573" grid="1" gridSize="10" guides="1" tooltips="1" connect="1" arrows="1" fold="1" page="1" pageScale="1" pageWidth="827" pageHeight="1169" math="0" shadow="0">
            <root>
                <mxCell id="0"/>
                <mxCell id="1" parent="0"/>
                <mxCell id="MpzdnEkrCsCnoPuBvh6I-18" value="AWS Account" style="points=[[0,0],[0.25,0],[0.5,0],[0.75,0],[1,0],[1,0.25],[1,0.5],[1,0.75],[1,1],[0.75,1],[0.5,1],[0.25,1],[0,1],[0,0.75],[0,0.5],[0,0.25]];outlineConnect=0;gradientColor=none;html=1;whiteSpace=wrap;fontSize=12;fontStyle=0;container=1;pointerEvents=0;collapsible=0;recursiveResize=0;shape=mxgraph.aws4.group;grIcon=mxgraph.aws4.group_account;strokeColor=#CD2264;fillColor=none;verticalAlign=top;align=left;spacingLeft=30;fontColor=#CD2264;dashed=0;" parent="1" vertex="1">
                    <mxGeometry x="110" y="45" width="580" height="555" as="geometry"/>
                </mxCell>
                <mxCell id="MpzdnEkrCsCnoPuBvh6I-27" value="VPC" style="points=[[0,0],[0.25,0],[0.5,0],[0.75,0],[1,0],[1,0.25],[1,0.5],[1,0.75],[1,1],[0.75,1],[0.5,1],[0.25,1],[0,1],[0,0.75],[0,0.5],[0,0.25]];outlineConnect=0;gradientColor=none;html=1;whiteSpace=wrap;fontSize=12;fontStyle=0;container=1;pointerEvents=0;collapsible=0;recursiveResize=0;shape=mxgraph.aws4.group;grIcon=mxgraph.aws4.group_vpc2;strokeColor=#8C4FFF;fillColor=none;verticalAlign=top;align=left;spacingLeft=30;fontColor=#AAB7B8;dashed=0;" parent="MpzdnEkrCsCnoPuBvh6I-18" vertex="1">
                    <mxGeometry x="30" y="53.62" width="500" height="326.38" as="geometry"/>
                </mxCell>
                <mxCell id="MpzdnEkrCsCnoPuBvh6I-28" value="VPN point-to-site" style="sketch=0;points=[[0,0,0],[0.25,0,0],[0.5,0,0],[0.75,0,0],[1,0,0],[0,1,0],[0.25,1,0],[0.5,1,0],[0.75,1,0],[1,1,0],[0,0.25,0],[0,0.5,0],[0,0.75,0],[1,0.25,0],[1,0.5,0],[1,0.75,0]];outlineConnect=0;fontColor=#232F3E;fillColor=#8C4FFF;strokeColor=#ffffff;dashed=0;verticalLabelPosition=bottom;verticalAlign=top;align=center;html=1;fontSize=12;fontStyle=0;aspect=fixed;shape=mxgraph.aws4.resourceIcon;resIcon=mxgraph.aws4.client_vpn;" parent="MpzdnEkrCsCnoPuBvh6I-27" vertex="1">
                    <mxGeometry x="32" y="157.25" width="78" height="78" as="geometry"/>
                </mxCell>
                <mxCell id="QCaoQbvcjNqZHvhBFUUW-2" value="Public subnet x3" style="points=[[0,0],[0.25,0],[0.5,0],[0.75,0],[1,0],[1,0.25],[1,0.5],[1,0.75],[1,1],[0.75,1],[0.5,1],[0.25,1],[0,1],[0,0.75],[0,0.5],[0,0.25]];outlineConnect=0;gradientColor=none;html=1;whiteSpace=wrap;fontSize=12;fontStyle=0;container=1;pointerEvents=0;collapsible=0;recursiveResize=0;shape=mxgraph.aws4.group;grIcon=mxgraph.aws4.group_security_group;grStroke=0;strokeColor=#7AA116;fillColor=#F2F6E8;verticalAlign=top;align=left;spacingLeft=30;fontColor=#248814;dashed=0;" parent="MpzdnEkrCsCnoPuBvh6I-27" vertex="1">
                    <mxGeometry x="20" y="52.25" width="130" height="62.75" as="geometry"/>
                </mxCell>
                <mxCell id="QCaoQbvcjNqZHvhBFUUW-1" value="Private subnet x3" style="points=[[0,0],[0.25,0],[0.5,0],[0.75,0],[1,0],[1,0.25],[1,0.5],[1,0.75],[1,1],[0.75,1],[0.5,1],[0.25,1],[0,1],[0,0.75],[0,0.5],[0,0.25]];outlineConnect=0;gradientColor=none;html=1;whiteSpace=wrap;fontSize=12;fontStyle=0;container=1;pointerEvents=0;collapsible=0;recursiveResize=0;shape=mxgraph.aws4.group;grIcon=mxgraph.aws4.group_security_group;grStroke=0;strokeColor=#00A4A6;fillColor=#E6F6F7;verticalAlign=top;align=left;spacingLeft=30;fontColor=#147EBA;dashed=0;" parent="MpzdnEkrCsCnoPuBvh6I-27" vertex="1">
                    <mxGeometry x="160" y="53.63" width="130" height="60" as="geometry"/>
                </mxCell>
                <mxCell id="QCaoQbvcjNqZHvhBFUUW-4" value="Nat Gateway" style="sketch=0;outlineConnect=0;fontColor=#232F3E;gradientColor=none;fillColor=#8C4FFF;strokeColor=none;dashed=0;verticalLabelPosition=bottom;verticalAlign=top;align=center;html=1;fontSize=12;fontStyle=0;aspect=fixed;pointerEvents=1;shape=mxgraph.aws4.nat_gateway;" parent="MpzdnEkrCsCnoPuBvh6I-27" vertex="1">
                    <mxGeometry x="140" y="157.25" width="78" height="78" as="geometry"/>
                </mxCell>
                <mxCell id="QCaoQbvcjNqZHvhBFUUW-5" value="Internet Gateway" style="sketch=0;outlineConnect=0;fontColor=#232F3E;gradientColor=none;fillColor=#8C4FFF;strokeColor=none;dashed=0;verticalLabelPosition=bottom;verticalAlign=top;align=center;html=1;fontSize=12;fontStyle=0;aspect=fixed;pointerEvents=1;shape=mxgraph.aws4.internet_gateway;" parent="MpzdnEkrCsCnoPuBvh6I-27" vertex="1">
                    <mxGeometry x="240" y="157.25" width="78" height="78" as="geometry"/>
                </mxCell>
                <mxCell id="QCaoQbvcjNqZHvhBFUUW-8" value="Endpoints&lt;div&gt;S3 e DynamoDB&lt;/div&gt;" style="sketch=0;outlineConnect=0;fontColor=#232F3E;gradientColor=none;fillColor=#8C4FFF;strokeColor=none;dashed=0;verticalLabelPosition=bottom;verticalAlign=top;align=center;html=1;fontSize=12;fontStyle=0;aspect=fixed;pointerEvents=1;shape=mxgraph.aws4.endpoint;" parent="MpzdnEkrCsCnoPuBvh6I-27" vertex="1">
                    <mxGeometry x="356" y="157.25" width="78" height="78" as="geometry"/>
                </mxCell>
                <mxCell id="z3ls_bcRV1hTwiClUylq-15" value="" style="rounded=0;whiteSpace=wrap;html=1;fillColor=none;strokeColor=#B80AA6;dashed=1;dashPattern=12 12;strokeWidth=2;" parent="MpzdnEkrCsCnoPuBvh6I-27" vertex="1">
                    <mxGeometry x="-10" y="-18.62" width="530" height="368.62" as="geometry"/>
                </mxCell>
                <mxCell id="z3ls_bcRV1hTwiClUylq-29" value="Core" style="shape=image;verticalLabelPosition=bottom;verticalAlign=top;imageAspect=0;aspect=fixed;image=data:image/png,iVBORw0KGgoAAAANSUhEUgAAAHAAAACACAYAAADTcu1SAAAAAXNSR0IArs4c6QAADitJREFUeAHtnX1UlFUex5/7PDOAoiWnRGbo5G6FL7XV4lqnrFZAT6booOxOLyuD7FZmdbT3jlu5S55t/SM37XjWNirFGWpLVmEGNLUEcteOWcZmbyrlZh1mSDCtFAVmnrvfB7nwMIHAvD3PzNw5B+597jNz7+9+P3Nfnvs2gi3PveUPlubxAn9FpQIipXRWB+n4uGCu+28Lrd+dH5W5iGOjRSXvgGgUZPrw6bYzDTaL++7iYtoZHse6RE3We4GiAh2Nv5Iv6t37bPM8U6MmF3FsaC+A3TpQ4ZfUJ9ehNG68M989tjuce3SnQN8Au8xEabS2e+mBAot7uc3WlKw767lBwjkBKvpQQUjC/2XC976DADkf7SXhuulHAVJgaQSjIb32GAziktLNpveH9Cn+5rAoMGAJ7CPV67xe+h5KY+nC/GZTH/d5UAQVCAQgzFOqUbqg1ddxqDDPvXTxYpoYQZt5UioFAgTYFQOlI2RKVxw/4vkMIOep4uXeCCkQSBvYr2koljUSkR4sdaZ93O+b+I2QKhBcCfQzBb2hHK8g1xfkNf69cN4PF/jd5pdhUCCkADvto1TCs8d9su/HBgyUL8GwnCEMdvMouxQIPcAeaVPwzPj8l/We/QA5oyeY+0KpQDgBdtoJiBPxt81maawq+s3RjFAaz+MSBh6JCZVIaB9ne70dnxTmNT67eP6x80IVb7zHE/YS2EtgKiTIVHj0xMm2Bjx23MWnrXqpE9BFZAF2mYgqNRXPjy99We/+oCjPfVNAlvMPdSqgCUCmPaVCppfSXba8xtcLre6LWTh3B6+ALrr4AHmb0C6kwuycwZvO36kooGkJVCNAJ4dPU6kFGaRfNwD97cVqgMlYLWf2D+fXZxVAP4Lk5FTN0S1AFMcbOoTO2Y4nioooJpX5iymQk1M9JTu7ai+anjW6BagYiyUdyeitPuM77vncNs+dzzIQr+7MmVsvArgyWZZ3Q4PJig666MQMBATVxc8En7CpIM9dJ4jSg2UVYz4a6DOxdN9qfXdYS8t3j54541sKLYar86brEqg2tNNPaZYg+/ZhbPWFhXe4L/zJ/RgMQHVpbWk5doBSebk/PCW70QVQsRizHcjIotOttKHQ4n5g4UIsSo7B1/TpWzOzsqp2obrciPz2+4wcfQC7YKEBHyULdPXpJs/+wrmembHC8Oabt6einSvx+bwf4Ns64ChVVLSB54KDjs4EKtOtaB+3JFDjI+tcow+e6/16vWe1fprQ3Py/xR0d7X9CiRv0YH/UlsCfgKA0N1o36WRnV+c2Nx/+RBDklUOBp2gQOwCRGWQ+qjbpTJ9ePRHV5XZ0UKphfUBzpTEFkJVKVKu63qSTm1udglGU1Vhfux9fupuZ3YG4MQmwWwidbdKxWqmEx4J7W1vlBlmmD6DUBd0HiW2AXST1sEknJ2drTnNzdT0eC9aiBx2yFXtxAVDhiNkOTTbpoJ27BM9zm2XZuxNWXNldO4TIEzcAmV4AmQ4hywrnuncX5XuuYeGhdq3W2hEAt8Lno58hvbCtWo87gAwUqrHrw7FJB50SkpVVvaC5+eQhgFPGLsO6byRuAZ4FGdpNOtOmVV2PZ7r38DxXCngR2bkV5wC7ymOQm3TwSJCuTPP4fAKmeWjYqmVWe6hdkQjkXqxmaFEHxq+fXoL5x81YhLyzKK9pwA5HUVFtEkrcMlTHh1BVzge8iC8LER0u8z8M4rAMQSTPA6Q3fuH15BwdnQE36SjTPEeOnOx3mqcntvD6OqvQ0sqUE2WV5geJJFxFCNke3iSjJHbVJp3f57snqa1G79LVNc0zVh2uhb9XG+ioMH/ucJpvESVpDoxp0MIgHaaZ0iELvebjCBGu1oudvQAyo+wVadXD08xXCER8DNXqDyycu/pToE+AipklJaSjzGlaSSQxAx2dV1C1yvozn1vUL0AmjaMi7Sg6OncRapgsEPJvFs5dfSgwIEBmpt2VWl/mNP9aJNLtKJFfs3DuaqvAoAEyM+3OtDcuTDRNwFxwMUC2snDuaqPAkAEqZq4qJ6fLXKanDSRxAnpkr2tjOk9VUSAggEy69c4LvnE40++QDMKN6OTsY+HcjZwCQQFkZm7YnL770kzTtaIg3YnHjm9ZOHfDr0BIACpmFhcT2e5KW5cyMnEcNoo9i7/28JvPUwgZQCblmlcv+KHMmf64kGC8Au1jFQvnbngUCDlAZmZZeeoXaB8tkkhm4PkRs9L8FQ4FwgaQGbuh0rzjskzT1aIoLEHYcRbO3dAoEHaAiploH732yvQ1ojQyA23jWpRIX2jM57FEBCCT2V5x3jG0j/cbBDFTOdmQhXM3cAUiCpCZqRxH6XClTxMJwa5bcpiFc3foCmgCkJlpd5orUsaaLicieYII9EcWzt3BKxD00u7BJ9X3O9esIW24s4IfZNC3PgOFaloC1caVlpIz6mvuH5wCugHoby7Wdx3AbMcp/3B+3aMAVsN9qFuAWJuz3SgYx6GTU4Y/LBTjL6YAJg4OiyLJr6ubk69bgIqx2C7tLnOZbfihkSkwei/LQBy7J6HDE0lJ0uU1NXMqFB0078QMBkbp5rQ9WDh73YL8pkLsq1uBrbgRWbY+GNsi8x5CMa7sSEgwLt2+/RaPOk3dAlQ2ieDVXXV2+TfcZz266cd275OA+BBuhnXjiFooDf17MAz5AEpcnzWQbqvQwjzPPTjQZwUOvBupFm9teepJtI9/NBoNl2NIrrMaUd+PFT++sI2SJNpqa+dM6Q+eklfdAsRQWyJK4VLlwDvbXE+RUiLVcNZtGnMYi6zyiSRNA8iP1fei20/OiKL4jNGYMH7nztll6lqor3zpFiAzFtuj06gsr8dhPnsL8r6dwsKZi2WPNZYEU6ZIxPvRThxj4dHpkn8lJRkm1tTMfmrHjhmDeoTSPUAGAiVwskC9u1Gtlt2Vf+wiFq64t5YTn91pWjsiOTmDEHENHjuiapMOStlH+PJl4bHAum3bzK/UeRvIHzUAWUYAcn6bt+0gSuSyh6x0GAtX3BdeG3Xc4TQtMRJyNarVHep7+vSTZti1aOrU2ZNqay3vBGJj1AFUMolqdTh2By1vafMcsFk8Vv+Mr3eaPkP7OIMQyYKG8wv/+9pfkw7UFKtGjRoxrq7O8qKynihQm6ISIMssQF5MBXkjzknbVWg5msnCmetwplVdmmi+QhTEx1Gt6mSTDnmTEMOVtbWzH66szD7BbA3UjWqA3Zmm9CZKvB+gfSyxzWtK7Q6Hp7ictNtdpmeTkqVxRBTWob0J+NuujneofrRxB5F2Ltq5WbW1Mw8O9fP9vT82ACJ3aBtF/N2Nn09vwGPHI/7niL78zzHfOirT78Se8mtRGpUjiyPyArTvAe/hjAwzSt2craFONGYA9ghDz8Njx8rWJvenCyye3J7wsz4sstqH8dUbiSDdAWG/8b8fqmvELeOvBOOWGeigrCopmdwRqrjV8cQgwO7sZfgEuRrV6jYcmD6xO7TL43ClvT5sDJmAYaqnsdDqtP/9YK5R6t4xGKRfAdw9b745S+lphu0VywA7RUO1OoP6hP0Fc92r7/3diRS1kiUl5laslisWE4iySecN9b1A/AB3BKMot6KqzHrrrdz/BhLHUD8T8wDPCoJTAXE64MlTpxrwgyKLNuLUQLVQ9nLz11iEfLsoERxxTD5U3xuMH+BOYX5u2dixIyZgFKV8MJ8J1XviBOBZuZRTAvHo8YKr3VNfaPFk+4torzD/57JJpmuwWu5uQDnqf/+n18o0D3kVpXc8Bpz/UlqaHfFlIXEFsBsApVfKglyD0rjJZm36eXc4PJ2bdJzml0eNSMxAj3Vl/5t0yPuSJNyA6rIA8BrVcUTSr9v5wEiIgNKYT9p8uQD53MhEw1+VqSqWrrJJB/7H8LOxJYLg7VXlop27/+23Z21B6euer2Sfi7SLkSZ9vpTfhFB+ViBi1hGCmW6y1FGZ5tADmMHmOz6r0L7UUZZpUHkDBsn3FOU3XdfXW/QYxgH6UcFjx7Ver/xugcXtKLS2pPvd1t0lB9gnks5zRAtoW/tBDAQ8qedV4xxgnwDPBqKTk4wS+RfvCc8t53ibprc4QE3lDz5xDjB4DTWNgQPUVP7gE+cAg9dQ0xg4QE3lDz5xDjB4DTWNgQPUVP7gE+cAg9dQ0xg4QE3lDz5xDjB4DTWNgQPUVP7gE+cAg9dQ0xg4QE3lDz5xDjB4DTWNgQPUVP7gE+cAg9dQ0xg4QE3lDz5xDjB4DTWNgQPUVP7gE9ctQGNisoMfzzwwYN0CfKX8/O/48cxRDJCZzo9nZkr07eq2BPqbqz6eGUeIdO9h8H9fvF1HDUAFjHI8s6PSvGK4ZByH/Qt27GXQfHOJ1l+YqALIxCrZPNqDA+8WYFOlsodhDwuPRzcqATJQ9krTXoCcApA2bLPSbI8es0cLN6oBKoIpW8HsleYy4XxpPPzPAGTEd8lqAY6lGfUAWUYcjrRTKI1PSaI4ESA3sfBYd2MGIANVWmn6CiB/axDFbJTGj1h4rLoxB5CBAsi6SyeZJ+HAgkWoaFtYeKy5MQtQAdV1YMGLBnFYBn6DYjWq1rCclqTllyKmATJhSytTTjhc5ofwY81XAeQ2Fh4LblwAZKBKN5kPAORMSRBn42yXQyw8mt24AshAbXCZtgwbY/6FKJBH8BzyPQuPRjcuASqgSkpIh91lfs6YQHDONnkJf5qcIxrslyZuATLh1pebmvHYsZBQw2SUxl0sPFrcuAfIQNldqfU4Z3sqBgJuA8gjLFzvLgfoR2hDpWnj6AQTRnPEP6PH2up3W3eXHGAfSFaVk9P4+YLliYZEZXz1NZHgnEP+il4F/M8X1VNO/g8k+slcMVd8QwAAAABJRU5ErkJggg==;movable=1;resizable=1;rotatable=1;deletable=1;editable=1;locked=0;connectable=1;" parent="MpzdnEkrCsCnoPuBvh6I-18" vertex="1">
                    <mxGeometry x="10" y="380" width="43.75" height="50" as="geometry"/>
                </mxCell>
                <mxCell id="MpzdnEkrCsCnoPuBvh6I-25" value="&lt;span style=&quot;color: rgb(0, 0, 0);&quot;&gt;Parameter Store&lt;/span&gt;&lt;div style=&quot;color: rgb(0, 0, 0);&quot;&gt;(Secrets)&lt;/div&gt;" style="sketch=0;outlineConnect=0;fontColor=#232F3E;gradientColor=none;fillColor=#E7157B;strokeColor=none;dashed=0;verticalLabelPosition=bottom;verticalAlign=top;align=center;html=1;fontSize=12;fontStyle=0;aspect=fixed;pointerEvents=1;shape=mxgraph.aws4.parameter_store;" parent="MpzdnEkrCsCnoPuBvh6I-18" vertex="1">
                    <mxGeometry x="140" y="425" width="75" height="78" as="geometry"/>
                </mxCell>
                <mxCell id="z3ls_bcRV1hTwiClUylq-33" value="CloudWatch" style="sketch=0;points=[[0,0,0],[0.25,0,0],[0.5,0,0],[0.75,0,0],[1,0,0],[0,1,0],[0.25,1,0],[0.5,1,0],[0.75,1,0],[1,1,0],[0,0.25,0],[0,0.5,0],[0,0.75,0],[1,0.25,0],[1,0.5,0],[1,0.75,0]];points=[[0,0,0],[0.25,0,0],[0.5,0,0],[0.75,0,0],[1,0,0],[0,1,0],[0.25,1,0],[0.5,1,0],[0.75,1,0],[1,1,0],[0,0.25,0],[0,0.5,0],[0,0.75,0],[1,0.25,0],[1,0.5,0],[1,0.75,0]];outlineConnect=0;fontColor=#232F3E;fillColor=#E7157B;strokeColor=#ffffff;dashed=0;verticalLabelPosition=bottom;verticalAlign=top;align=center;html=1;fontSize=12;fontStyle=0;aspect=fixed;shape=mxgraph.aws4.resourceIcon;resIcon=mxgraph.aws4.cloudwatch_2;" parent="MpzdnEkrCsCnoPuBvh6I-18" vertex="1">
                    <mxGeometry x="360" y="430" width="78" height="78" as="geometry"/>
                </mxCell>
                <mxCell id="f4ouwdFL5ZeOwoK_vK_O-3" value="&lt;table id=&quot;w86aac13c11b3&quot; style=&quot;scroll-margin-top: 97px; border: none; border-spacing: 0px; position: relative; color: rgb(15, 20, 26); font-family: &amp;quot;Amazon Ember&amp;quot;, Helvetica, Arial, sans-serif; font-size: 16px; font-style: normal; font-variant-ligatures: normal; font-variant-caps: normal; font-weight: 400; letter-spacing: normal; orphans: 2; text-align: start; text-transform: none; widows: 2; word-spacing: 0px; -webkit-text-stroke-width: 0px; white-space: normal; background-color: rgb(255, 255, 255); text-decoration-thickness: initial; text-decoration-style: initial; text-decoration-color: initial;&quot;&gt;&lt;thead&gt;&lt;tr&gt;&lt;th style=&quot;background-color: rgb(243, 243, 247); border-color: rgb(198, 198, 205); color: rgb(15, 20, 26); font-size: 1em; font-weight: 700; line-height: 1.5em; margin: 0px; word-break: normal !important; border-style: solid; border-width: 0px 1px 1px 0px; padding: 1em 20px; text-align: left; vertical-align: top; position: sticky; top: -1px; z-index: 100;&quot;&gt;Short code&lt;/th&gt;&lt;th style=&quot;background-color: rgb(243, 243, 247); border-color: rgb(198, 198, 205); color: rgb(15, 20, 26); font-size: 1em; font-weight: 700; line-height: 1.5em; margin: 0px; word-break: normal !important; border-style: solid; border-width: 0px 1px 1px 0px; padding: 1em 20px; text-align: left; vertical-align: top; position: sticky; top: -1px; z-index: 100;&quot;&gt;Code&lt;/th&gt;&lt;th style=&quot;background-color: rgb(243, 243, 247); border-color: rgb(198, 198, 205); color: rgb(15, 20, 26); font-size: 1em; font-weight: 700; line-height: 1.5em; margin: 0px; word-break: normal !important; border-style: solid; border-width: 0px 1px 1px 0px; padding: 1em 20px; text-align: left; vertical-align: top; position: sticky; top: -1px; z-index: 100;&quot;&gt;Region&lt;/th&gt;&lt;/tr&gt;&lt;/thead&gt;&lt;tbody&gt;&lt;tr&gt;&lt;td tabindex=&quot;-1&quot; style=&quot;border-top: none; border-right: 1px solid rgb(198, 198, 205); border-bottom: 1px solid rgb(198, 198, 205); border-left: none; font-size: 1em; font-weight: 400; line-height: 1.5em; margin: 0px; word-break: normal !important; display: table-cell; padding: 4px 20px; vertical-align: top;&quot;&gt;&lt;code class=&quot;code&quot; style=&quot;font-family: Monaco, Menlo, Consolas, &amp;quot;Courier Prime&amp;quot;, Courier, &amp;quot;Courier New&amp;quot;, monospace; font-size: 1em;&quot;&gt;EU&lt;/code&gt;&lt;/td&gt;&lt;td tabindex=&quot;-1&quot; style=&quot;border-top: none; border-right: 1px solid rgb(198, 198, 205); border-bottom: 1px solid rgb(198, 198, 205); border-left: none; font-size: 1em; font-weight: 400; line-height: 1.5em; margin: 0px; word-break: normal !important; display: table-cell; padding: 4px 20px; vertical-align: top;&quot;&gt;&lt;code class=&quot;code&quot; style=&quot;font-family: Monaco, Menlo, Consolas, &amp;quot;Courier Prime&amp;quot;, Courier, &amp;quot;Courier New&amp;quot;, monospace; font-size: 1em;&quot;&gt;eu-west-1&lt;/code&gt;&lt;/td&gt;&lt;td tabindex=&quot;-1&quot; style=&quot;border-top: none; border-right: 1px solid rgb(198, 198, 205); border-bottom: 1px solid rgb(198, 198, 205); border-left: none; font-size: 1em; font-weight: 400; line-height: 1.5em; margin: 0px; word-break: normal !important; display: table-cell; padding: 4px 20px; vertical-align: top;&quot;&gt;Europe (Ireland)&lt;/td&gt;&lt;/tr&gt;&lt;tr&gt;&lt;td tabindex=&quot;-1&quot; style=&quot;border-top: none; border-right: 1px solid rgb(198, 198, 205); border-bottom: 1px solid rgb(198, 198, 205); border-left: none; font-size: 1em; font-weight: 400; line-height: 1.5em; margin: 0px; word-break: normal !important; display: table-cell; padding: 4px 20px; vertical-align: top;&quot;&gt;&lt;code class=&quot;code&quot; style=&quot;font-family: Monaco, Menlo, Consolas, &amp;quot;Courier Prime&amp;quot;, Courier, &amp;quot;Courier New&amp;quot;, monospace; font-size: 1em;&quot;&gt;EUC1&lt;/code&gt;&lt;/td&gt;&lt;td tabindex=&quot;-1&quot; style=&quot;border-top: none; border-right: 1px solid rgb(198, 198, 205); border-bottom: 1px solid rgb(198, 198, 205); border-left: none; font-size: 1em; font-weight: 400; line-height: 1.5em; margin: 0px; word-break: normal !important; display: table-cell; padding: 4px 20px; vertical-align: top;&quot;&gt;&lt;code class=&quot;code&quot; style=&quot;font-family: Monaco, Menlo, Consolas, &amp;quot;Courier Prime&amp;quot;, Courier, &amp;quot;Courier New&amp;quot;, monospace; font-size: 1em;&quot;&gt;eu-central-1&lt;/code&gt;&lt;/td&gt;&lt;td tabindex=&quot;-1&quot; style=&quot;border-top: none; border-right: 1px solid rgb(198, 198, 205); border-bottom: 1px solid rgb(198, 198, 205); border-left: none; font-size: 1em; font-weight: 400; line-height: 1.5em; margin: 0px; word-break: normal !important; display: table-cell; padding: 4px 20px; vertical-align: top;&quot;&gt;Europe (Frankfurt)&lt;/td&gt;&lt;/tr&gt;&lt;tr&gt;&lt;td tabindex=&quot;-1&quot; style=&quot;border-top: none; border-right: 1px solid rgb(198, 198, 205); border-bottom: 1px solid rgb(198, 198, 205); border-left: none; font-size: 1em; font-weight: 400; line-height: 1.5em; margin: 0px; word-break: normal !important; display: table-cell; padding: 4px 20px; vertical-align: top;&quot;&gt;&lt;code class=&quot;code&quot; style=&quot;font-family: Monaco, Menlo, Consolas, &amp;quot;Courier Prime&amp;quot;, Courier, &amp;quot;Courier New&amp;quot;, monospace; font-size: 1em;&quot;&gt;EUC2&lt;/code&gt;&lt;/td&gt;&lt;td tabindex=&quot;-1&quot; style=&quot;border-top: none; border-right: 1px solid rgb(198, 198, 205); border-bottom: 1px solid rgb(198, 198, 205); border-left: none; font-size: 1em; font-weight: 400; line-height: 1.5em; margin: 0px; word-break: normal !important; display: table-cell; padding: 4px 20px; vertical-align: top;&quot;&gt;&lt;code class=&quot;code&quot; style=&quot;font-family: Monaco, Menlo, Consolas, &amp;quot;Courier Prime&amp;quot;, Courier, &amp;quot;Courier New&amp;quot;, monospace; font-size: 1em;&quot;&gt;eu-central-2&lt;/code&gt;&lt;/td&gt;&lt;td tabindex=&quot;-1&quot; style=&quot;border-top: none; border-right: 1px solid rgb(198, 198, 205); border-bottom: 1px solid rgb(198, 198, 205); border-left: none; font-size: 1em; font-weight: 400; line-height: 1.5em; margin: 0px; word-break: normal !important; display: table-cell; padding: 4px 20px; vertical-align: top;&quot;&gt;Europe (Zurich)&lt;/td&gt;&lt;/tr&gt;&lt;tr&gt;&lt;td tabindex=&quot;-1&quot; style=&quot;border-top: none; border-right: 1px solid rgb(198, 198, 205); border-bottom: 1px solid rgb(198, 198, 205); border-left: none; font-size: 1em; font-weight: 400; line-height: 1.5em; margin: 0px; word-break: normal !important; display: table-cell; padding: 4px 20px; vertical-align: top;&quot;&gt;&lt;code class=&quot;code&quot; style=&quot;font-family: Monaco, Menlo, Consolas, &amp;quot;Courier Prime&amp;quot;, Courier, &amp;quot;Courier New&amp;quot;, monospace; font-size: 1em;&quot;&gt;EUW2&lt;/code&gt;&lt;/td&gt;&lt;td tabindex=&quot;-1&quot; style=&quot;border-top: none; border-right: 1px solid rgb(198, 198, 205); border-bottom: 1px solid rgb(198, 198, 205); border-left: none; font-size: 1em; font-weight: 400; line-height: 1.5em; margin: 0px; word-break: normal !important; display: table-cell; padding: 4px 20px; vertical-align: top;&quot;&gt;&lt;code class=&quot;code&quot; style=&quot;font-family: Monaco, Menlo, Consolas, &amp;quot;Courier Prime&amp;quot;, Courier, &amp;quot;Courier New&amp;quot;, monospace; font-size: 1em;&quot;&gt;eu-west-2&lt;/code&gt;&lt;/td&gt;&lt;td tabindex=&quot;-1&quot; style=&quot;border-top: none; border-right: 1px solid rgb(198, 198, 205); border-bottom: 1px solid rgb(198, 198, 205); border-left: none; font-size: 1em; font-weight: 400; line-height: 1.5em; margin: 0px; word-break: normal !important; display: table-cell; padding: 4px 20px; vertical-align: top;&quot;&gt;Europe (London)&lt;/td&gt;&lt;/tr&gt;&lt;tr&gt;&lt;td tabindex=&quot;-1&quot; style=&quot;border-top: none; border-right: 1px solid rgb(198, 198, 205); border-bottom: 1px solid rgb(198, 198, 205); border-left: none; font-size: 1em; font-weight: 400; line-height: 1.5em; margin: 0px; word-break: normal !important; display: table-cell; padding: 4px 20px; vertical-align: top;&quot;&gt;&lt;code class=&quot;code&quot; style=&quot;font-family: Monaco, Menlo, Consolas, &amp;quot;Courier Prime&amp;quot;, Courier, &amp;quot;Courier New&amp;quot;, monospace; font-size: 1em;&quot;&gt;EUW3&lt;/code&gt;&lt;/td&gt;&lt;td tabindex=&quot;-1&quot; style=&quot;border-top: none; border-right: 1px solid rgb(198, 198, 205); border-bottom: 1px solid rgb(198, 198, 205); border-left: none; font-size: 1em; font-weight: 400; line-height: 1.5em; margin: 0px; word-break: normal !important; display: table-cell; padding: 4px 20px; vertical-align: top;&quot;&gt;&lt;code class=&quot;code&quot; style=&quot;font-family: Monaco, Menlo, Consolas, &amp;quot;Courier Prime&amp;quot;, Courier, &amp;quot;Courier New&amp;quot;, monospace; font-size: 1em;&quot;&gt;eu-west-3&lt;/code&gt;&lt;/td&gt;&lt;td tabindex=&quot;-1&quot; style=&quot;border-top: none; border-right: 1px solid rgb(198, 198, 205); border-bottom: 1px solid rgb(198, 198, 205); border-left: none; font-size: 1em; font-weight: 400; line-height: 1.5em; margin: 0px; word-break: normal !important; display: table-cell; padding: 4px 20px; vertical-align: top;&quot;&gt;Europe (Paris)&lt;/td&gt;&lt;/tr&gt;&lt;tr&gt;&lt;td tabindex=&quot;-1&quot; style=&quot;border-top: none; border-right: 1px solid rgb(198, 198, 205); border-bottom: 1px solid rgb(198, 198, 205); border-left: none; font-size: 1em; font-weight: 400; line-height: 1.5em; margin: 0px; word-break: normal !important; display: table-cell; padding: 4px 20px; vertical-align: top;&quot;&gt;&lt;code class=&quot;code&quot; style=&quot;font-family: Monaco, Menlo, Consolas, &amp;quot;Courier Prime&amp;quot;, Courier, &amp;quot;Courier New&amp;quot;, monospace; font-size: 1em;&quot;&gt;EUN1&lt;/code&gt;&lt;/td&gt;&lt;td tabindex=&quot;-1&quot; style=&quot;border-top: none; border-right: 1px solid rgb(198, 198, 205); border-bottom: 1px solid rgb(198, 198, 205); border-left: none; font-size: 1em; font-weight: 400; line-height: 1.5em; margin: 0px; word-break: normal !important; display: table-cell; padding: 4px 20px; vertical-align: top;&quot;&gt;&lt;code class=&quot;code&quot; style=&quot;font-family: Monaco, Menlo, Consolas, &amp;quot;Courier Prime&amp;quot;, Courier, &amp;quot;Courier New&amp;quot;, monospace; font-size: 1em;&quot;&gt;eu-north-1&lt;/code&gt;&lt;/td&gt;&lt;td tabindex=&quot;-1&quot; style=&quot;border-top: none; border-right: 1px solid rgb(198, 198, 205); border-bottom: 1px solid rgb(198, 198, 205); border-left: none; font-size: 1em; font-weight: 400; line-height: 1.5em; margin: 0px; word-break: normal !important; display: table-cell; padding: 4px 20px; vertical-align: top;&quot;&gt;Europe (Stockholm)&lt;/td&gt;&lt;/tr&gt;&lt;tr&gt;&lt;td tabindex=&quot;-1&quot; style=&quot;border-top: none; border-right: 1px solid rgb(198, 198, 205); border-bottom: 1px solid rgb(198, 198, 205); border-left: none; font-size: 1em; font-weight: 400; line-height: 1.5em; margin: 0px; word-break: normal !important; display: table-cell; padding: 4px 20px; vertical-align: top;&quot;&gt;&lt;code class=&quot;code&quot; style=&quot;font-family: Monaco, Menlo, Consolas, &amp;quot;Courier Prime&amp;quot;, Courier, &amp;quot;Courier New&amp;quot;, monospace; font-size: 1em;&quot;&gt;EUS1&lt;/code&gt;&lt;/td&gt;&lt;td tabindex=&quot;-1&quot; style=&quot;border-top: none; border-right: 1px solid rgb(198, 198, 205); border-bottom: 1px solid rgb(198, 198, 205); border-left: none; font-size: 1em; font-weight: 400; line-height: 1.5em; margin: 0px; word-break: normal !important; display: table-cell; padding: 4px 20px; vertical-align: top;&quot;&gt;&lt;code class=&quot;code&quot; style=&quot;font-family: Monaco, Menlo, Consolas, &amp;quot;Courier Prime&amp;quot;, Courier, &amp;quot;Courier New&amp;quot;, monospace; font-size: 1em;&quot;&gt;eu-south-1&lt;/code&gt;&lt;/td&gt;&lt;td tabindex=&quot;-1&quot; style=&quot;border-top: none; border-right: 1px solid rgb(198, 198, 205); border-bottom: 1px solid rgb(198, 198, 205); border-left: none; font-size: 1em; font-weight: 400; line-height: 1.5em; margin: 0px; word-break: normal !important; display: table-cell; padding: 4px 20px; vertical-align: top;&quot;&gt;Europe (Milan)&lt;/td&gt;&lt;/tr&gt;&lt;tr&gt;&lt;td tabindex=&quot;-1&quot; style=&quot;border-top: none; border-right: 1px solid rgb(198, 198, 205); border-bottom: 1px solid rgb(198, 198, 205); border-left: none; font-size: 1em; font-weight: 400; line-height: 1.5em; margin: 0px; word-break: normal !important; display: table-cell; padding: 4px 20px; vertical-align: top;&quot;&gt;&lt;code class=&quot;code&quot; style=&quot;font-family: Monaco, Menlo, Consolas, &amp;quot;Courier Prime&amp;quot;, Courier, &amp;quot;Courier New&amp;quot;, monospace; font-size: 1em;&quot;&gt;EUS2&lt;/code&gt;&lt;/td&gt;&lt;td tabindex=&quot;-1&quot; style=&quot;border-top: none; border-right: 1px solid rgb(198, 198, 205); border-bottom: 1px solid rgb(198, 198, 205); border-left: none; font-size: 1em; font-weight: 400; line-height: 1.5em; margin: 0px; word-break: normal !important; display: table-cell; padding: 4px 20px; vertical-align: top;&quot;&gt;&lt;code class=&quot;code&quot; style=&quot;font-family: Monaco, Menlo, Consolas, &amp;quot;Courier Prime&amp;quot;, Courier, &amp;quot;Courier New&amp;quot;, monospace; font-size: 1em;&quot;&gt;eu-south-2&lt;/code&gt;&lt;/td&gt;&lt;td tabindex=&quot;-1&quot; style=&quot;border-top: none; border-right: 1px solid rgb(198, 198, 205); border-bottom: 1px solid rgb(198, 198, 205); border-left: none; font-size: 1em; font-weight: 400; line-height: 1.5em; margin: 0px; word-break: normal !important; display: table-cell; padding: 4px 20px; vertical-align: top;&quot;&gt;Europe (Spain)&lt;/td&gt;&lt;/tr&gt;&lt;/tbody&gt;&lt;/table&gt;" style="text;whiteSpace=wrap;html=1;" parent="1" vertex="1">
                    <mxGeometry x="150" y="680" width="500" height="350" as="geometry"/>
                </mxCell>
            </root>
        </mxGraphModel>
    </diagram>
</mxfile>
